<svg xmlns="http://www.w3.org/2000/svg" xmlns:xlink="http://www.w3.org/1999/xlink" width="3000" zoomAndPan="magnify" viewBox="0 0 2250 2250.000011" height="3000" preserveAspectRatio="xMidYMid meet" version="1.0"><defs><clipPath id="baa9c86278"><path d="M 225.398438 224.898438 L 2024 224.898438 L 2024 2024 L 225.398438 2024 Z M 225.398438 224.898438 " clip-rule="nonzero"/></clipPath></defs><g clip-path="url(#baa9c86278)"><path fill="#8c0f10" d="M 1124.207031 224.355469 C 627.523438 224.355469 224.871094 627.023438 224.871094 1123.691406 C 224.871094 1620.359375 627.523438 2023.058594 1124.207031 2023.058594 C 1620.890625 2023.058594 2023.574219 1620.359375 2023.574219 1123.691406 C 2023.574219 627.023438 1620.890625 224.355469 1124.207031 224.355469 Z M 1513.015625 1294.746094 L 1131.734375 1294.746094 C 1130.441406 1294.746094 1129.246094 1294.4375 1127.96875 1294.390625 C 1126.695312 1294.453125 1125.496094 1294.746094 1124.207031 1294.746094 C 1089.855469 1294.746094 1062.003906 1266.898438 1062.003906 1232.546875 L 1062.003906 597.585938 C 1062.003906 563.234375 1089.855469 535.382812 1124.207031 535.382812 C 1158.558594 535.382812 1186.410156 563.234375 1186.410156 597.585938 L 1186.410156 1170.34375 L 1513.003906 1170.34375 C 1547.351562 1170.34375 1575.203125 1198.195312 1575.203125 1232.546875 C 1575.203125 1266.898438 1547.367188 1294.746094 1513.015625 1294.746094 Z M 1513.015625 1294.746094 " fill-opacity="1" fill-rule="nonzero"/></g></svg>