<svg xmlns="http://www.w3.org/2000/svg" xmlns:xlink="http://www.w3.org/1999/xlink" width="3000" zoomAndPan="magnify" viewBox="0 0 2250 2250.000011" height="3000" preserveAspectRatio="xMidYMid meet" version="1.0"><defs><clipPath id="99180f4d2a"><path d="M 225.398438 224.898438 L 2024.601562 224.898438 L 2024.601562 2024.101562 L 225.398438 2024.101562 Z M 225.398438 224.898438 " clip-rule="nonzero"/></clipPath></defs><g clip-path="url(#99180f4d2a)"><path fill="#8c0f10" d="M 2024.601562 1124.5 C 2024.601562 1139.222656 2024.238281 1153.9375 2023.515625 1168.640625 C 2022.792969 1183.347656 2021.710938 1198.023438 2020.269531 1212.675781 C 2018.824219 1227.328125 2017.023438 1241.9375 2014.863281 1256.5 C 2012.703125 1271.0625 2010.1875 1285.5625 2007.316406 1300.003906 C 2004.441406 1314.441406 2001.21875 1328.804688 1997.640625 1343.085938 C 1994.0625 1357.367188 1990.136719 1371.550781 1985.863281 1385.640625 C 1981.589844 1399.730469 1976.972656 1413.703125 1972.011719 1427.566406 C 1967.054688 1441.429688 1961.757812 1455.160156 1956.121094 1468.761719 C 1950.488281 1482.363281 1944.523438 1495.820312 1938.226562 1509.128906 C 1931.933594 1522.4375 1925.316406 1535.585938 1918.375 1548.570312 C 1911.4375 1561.554688 1904.179688 1574.359375 1896.613281 1586.988281 C 1889.042969 1599.613281 1881.167969 1612.050781 1872.988281 1624.292969 C 1864.808594 1636.53125 1856.335938 1648.566406 1847.566406 1660.390625 C 1838.796875 1672.214844 1829.738281 1683.820312 1820.398438 1695.199219 C 1811.058594 1706.582031 1801.445312 1717.726562 1791.558594 1728.632812 C 1781.671875 1739.542969 1771.523438 1750.203125 1761.113281 1760.613281 C 1750.703125 1771.023438 1740.042969 1781.171875 1729.132812 1791.058594 C 1718.226562 1800.945312 1707.082031 1810.5625 1695.699219 1819.902344 C 1684.320312 1829.242188 1672.714844 1838.296875 1660.890625 1847.066406 C 1649.066406 1855.835938 1637.03125 1864.3125 1624.789062 1872.488281 C 1612.550781 1880.667969 1600.113281 1888.542969 1587.488281 1896.113281 C 1574.859375 1903.683594 1562.050781 1910.9375 1549.070312 1917.875 C 1536.085938 1924.816406 1522.9375 1931.433594 1509.628906 1937.730469 C 1496.320312 1944.023438 1482.863281 1949.988281 1469.261719 1955.621094 C 1455.660156 1961.257812 1441.929688 1966.554688 1428.066406 1971.511719 C 1414.203125 1976.472656 1400.230469 1981.089844 1386.140625 1985.363281 C 1372.050781 1989.636719 1357.867188 1993.5625 1343.585938 1997.140625 C 1329.304688 2000.71875 1314.941406 2003.941406 1300.503906 2006.816406 C 1286.0625 2009.6875 1271.5625 2012.203125 1257 2014.363281 C 1242.433594 2016.523438 1227.828125 2018.324219 1213.175781 2019.769531 C 1198.523438 2021.210938 1183.847656 2022.292969 1169.140625 2023.015625 C 1154.4375 2023.738281 1139.722656 2024.101562 1125 2024.101562 C 1110.277344 2024.101562 1095.5625 2023.738281 1080.859375 2023.015625 C 1066.152344 2022.292969 1051.476562 2021.210938 1036.824219 2019.769531 C 1022.171875 2018.324219 1007.566406 2016.523438 993 2014.363281 C 978.4375 2012.203125 963.9375 2009.6875 949.496094 2006.816406 C 935.058594 2003.941406 920.695312 2000.71875 906.414062 1997.140625 C 892.132812 1993.5625 877.949219 1989.636719 863.859375 1985.363281 C 849.769531 1981.089844 835.796875 1976.472656 821.933594 1971.511719 C 808.070312 1966.554688 794.339844 1961.257812 780.738281 1955.621094 C 767.136719 1949.988281 753.679688 1944.023438 740.371094 1937.730469 C 727.0625 1931.433594 713.914062 1924.816406 700.929688 1917.875 C 687.945312 1910.9375 675.140625 1903.683594 662.511719 1896.113281 C 649.886719 1888.542969 637.449219 1880.667969 625.207031 1872.488281 C 612.96875 1864.3125 600.933594 1855.835938 589.109375 1847.066406 C 577.285156 1838.296875 565.679688 1829.242188 554.300781 1819.902344 C 542.917969 1810.5625 531.773438 1800.945312 520.867188 1791.058594 C 509.957031 1781.171875 499.296875 1771.023438 488.886719 1760.613281 C 478.476562 1750.203125 468.328125 1739.542969 458.441406 1728.632812 C 448.554688 1717.726562 438.941406 1706.582031 429.601562 1695.199219 C 420.257812 1683.820312 411.203125 1672.214844 402.433594 1660.390625 C 393.664062 1648.566406 385.1875 1636.53125 377.007812 1624.292969 C 368.832031 1612.050781 360.957031 1599.613281 353.386719 1586.988281 C 345.816406 1574.359375 338.5625 1561.554688 331.625 1548.570312 C 324.683594 1535.585938 318.066406 1522.4375 311.769531 1509.128906 C 305.476562 1495.820312 299.511719 1482.363281 293.878906 1468.761719 C 288.242188 1455.160156 282.945312 1441.429688 277.988281 1427.566406 C 273.027344 1413.703125 268.410156 1399.730469 264.136719 1385.640625 C 259.863281 1371.550781 255.9375 1357.367188 252.359375 1343.085938 C 248.78125 1328.804688 245.558594 1314.441406 242.683594 1300.003906 C 239.8125 1285.5625 237.296875 1271.0625 235.136719 1256.5 C 232.976562 1241.9375 231.175781 1227.328125 229.730469 1212.675781 C 228.289062 1198.023438 227.207031 1183.347656 226.484375 1168.640625 C 225.761719 1153.9375 225.398438 1139.222656 225.398438 1124.5 C 225.398438 1109.777344 225.761719 1095.0625 226.484375 1080.359375 C 227.207031 1065.652344 228.289062 1050.976562 229.730469 1036.324219 C 231.175781 1021.671875 232.976562 1007.066406 235.136719 992.5 C 237.296875 977.9375 239.8125 963.4375 242.683594 948.996094 C 245.558594 934.558594 248.78125 920.195312 252.359375 905.914062 C 255.9375 891.632812 259.863281 877.449219 264.136719 863.359375 C 268.410156 849.269531 273.027344 835.296875 277.988281 821.433594 C 282.945312 807.570312 288.242188 793.839844 293.878906 780.238281 C 299.511719 766.636719 305.476562 753.179688 311.769531 739.871094 C 318.066406 726.5625 324.683594 713.414062 331.625 700.433594 C 338.5625 687.449219 345.816406 674.640625 353.386719 662.011719 C 360.957031 649.386719 368.832031 636.949219 377.007812 624.710938 C 385.1875 612.46875 393.664062 600.433594 402.433594 588.609375 C 411.203125 576.785156 420.257812 565.179688 429.601562 553.800781 C 438.941406 542.417969 448.554688 531.273438 458.441406 520.367188 C 468.328125 509.457031 478.476562 498.796875 488.886719 488.386719 C 499.296875 477.976562 509.957031 467.828125 520.867188 457.941406 C 531.773438 448.054688 542.917969 438.441406 554.300781 429.101562 C 565.679688 419.761719 577.285156 410.703125 589.109375 401.933594 C 600.933594 393.164062 612.96875 384.691406 625.207031 376.511719 C 637.449219 368.332031 649.886719 360.457031 662.511719 352.886719 C 675.140625 345.320312 687.945312 338.0625 700.929688 331.125 C 713.914062 324.183594 727.0625 317.566406 740.371094 311.269531 C 753.679688 304.976562 767.136719 299.011719 780.738281 293.378906 C 794.339844 287.742188 808.070312 282.445312 821.933594 277.488281 C 835.796875 272.527344 849.769531 267.910156 863.859375 263.636719 C 877.949219 259.363281 892.132812 255.4375 906.414062 251.859375 C 920.695312 248.28125 935.058594 245.058594 949.496094 242.1875 C 963.9375 239.3125 978.4375 236.796875 993 234.636719 C 1007.566406 232.476562 1022.171875 230.675781 1036.824219 229.230469 C 1051.476562 227.789062 1066.152344 226.707031 1080.859375 225.984375 C 1095.5625 225.261719 1110.277344 224.898438 1125 224.898438 C 1139.722656 224.898438 1154.4375 225.261719 1169.140625 225.984375 C 1183.847656 226.707031 1198.523438 227.789062 1213.175781 229.230469 C 1227.828125 230.675781 1242.433594 232.476562 1257 234.636719 C 1271.5625 236.796875 1286.0625 239.3125 1300.503906 242.1875 C 1314.941406 245.058594 1329.304688 248.28125 1343.585938 251.859375 C 1357.867188 255.4375 1372.050781 259.363281 1386.140625 263.636719 C 1400.230469 267.910156 1414.203125 272.527344 1428.066406 277.488281 C 1441.929688 282.445312 1455.660156 287.742188 1469.261719 293.378906 C 1482.863281 299.011719 1496.320312 304.976562 1509.628906 311.269531 C 1522.9375 317.566406 1536.085938 324.183594 1549.070312 331.125 C 1562.050781 338.0625 1574.859375 345.320312 1587.488281 352.886719 C 1600.113281 360.457031 1612.550781 368.332031 1624.789062 376.511719 C 1637.03125 384.691406 1649.066406 393.164062 1660.890625 401.933594 C 1672.714844 410.703125 1684.320312 419.761719 1695.699219 429.101562 C 1707.082031 438.441406 1718.226562 448.054688 1729.132812 457.941406 C 1740.042969 467.828125 1750.703125 477.976562 1761.113281 488.386719 C 1771.523438 498.796875 1781.671875 509.457031 1791.558594 520.367188 C 1801.445312 531.273438 1811.058594 542.417969 1820.398438 553.800781 C 1829.738281 565.179688 1838.796875 576.785156 1847.566406 588.609375 C 1856.335938 600.433594 1864.808594 612.46875 1872.988281 624.710938 C 1881.167969 636.949219 1889.042969 649.386719 1896.613281 662.011719 C 1904.179688 674.640625 1911.4375 687.449219 1918.375 700.433594 C 1925.316406 713.414062 1931.933594 726.5625 1938.226562 739.871094 C 1944.523438 753.179688 1950.488281 766.636719 1956.121094 780.238281 C 1961.757812 793.839844 1967.054688 807.570312 1972.011719 821.433594 C 1976.972656 835.296875 1981.589844 849.269531 1985.863281 863.359375 C 1990.136719 877.449219 1994.0625 891.632812 1997.640625 905.914062 C 2001.21875 920.195312 2004.441406 934.558594 2007.316406 948.996094 C 2010.1875 963.4375 2012.703125 977.9375 2014.863281 992.5 C 2017.023438 1007.066406 2018.824219 1021.671875 2020.269531 1036.324219 C 2021.710938 1050.976562 2022.792969 1065.652344 2023.515625 1080.359375 C 2024.238281 1095.0625 2024.601562 1109.777344 2024.601562 1124.5 Z M 2024.601562 1124.5 " fill-opacity="1" fill-rule="nonzero"/></g><path fill="#ffffff" d="M 1501.886719 910.488281 L 1501.886719 904.808594 C 1501.886719 738.144531 1367.417969 605.574219 1202.648438 605.574219 L 1183.710938 605.574219 L 1183.710938 476.789062 C 1183.710938 465.425781 1174.242188 457.847656 1164.773438 457.847656 L 1089.015625 457.847656 C 1077.652344 457.847656 1070.078125 467.320312 1070.078125 476.789062 L 1070.078125 605.574219 L 1039.773438 605.574219 C 899.625 605.574219 772.734375 705.949219 753.796875 846.097656 C 734.859375 984.351562 816.296875 1109.347656 945.078125 1151.015625 L 1071.972656 1192.679688 L 1071.972656 1482.445312 L 1053.03125 1482.445312 C 977.277344 1482.445312 914.777344 1421.84375 914.777344 1344.191406 L 914.777344 1338.511719 C 914.777344 1327.148438 905.308594 1319.570312 895.839844 1319.570312 L 772.734375 1319.570312 C 761.371094 1319.570312 753.796875 1329.042969 753.796875 1338.511719 L 753.796875 1344.191406 C 753.796875 1510.855469 888.261719 1643.425781 1053.03125 1643.425781 L 1071.972656 1643.425781 L 1071.972656 1772.210938 C 1071.972656 1783.574219 1081.441406 1791.152344 1090.910156 1791.152344 L 1166.664062 1791.152344 C 1178.027344 1791.152344 1185.605469 1781.683594 1185.605469 1772.210938 L 1185.605469 1643.425781 L 1215.90625 1643.425781 C 1356.054688 1643.425781 1482.945312 1543.050781 1501.886719 1402.902344 C 1520.824219 1264.648438 1439.386719 1139.652344 1310.601562 1097.984375 L 1181.816406 1058.214844 L 1181.816406 768.449219 L 1200.753906 768.449219 C 1276.511719 768.449219 1339.011719 830.945312 1339.011719 906.703125 L 1339.011719 912.382812 C 1339.011719 923.746094 1348.480469 931.324219 1357.949219 931.324219 L 1481.050781 931.324219 C 1492.414062 929.429688 1501.886719 921.855469 1501.886719 910.488281 Z M 1259.464844 1253.285156 C 1308.707031 1268.4375 1340.902344 1313.890625 1340.902344 1365.023438 C 1340.902344 1429.417969 1287.875 1482.445312 1223.484375 1482.445312 L 1181.816406 1482.445312 L 1181.816406 1228.664062 Z M 1068.183594 1020.335938 L 992.425781 995.714844 C 945.078125 980.5625 910.988281 935.109375 910.988281 883.976562 C 910.988281 819.582031 964.019531 766.554688 1028.410156 766.554688 L 1068.183594 766.554688 Z M 1068.183594 1020.335938 " fill-opacity="1" fill-rule="nonzero"/></svg>