<svg xmlns="http://www.w3.org/2000/svg" xmlns:xlink="http://www.w3.org/1999/xlink" width="3000" zoomAndPan="magnify" viewBox="0 0 2250 2250.000011" height="3000" preserveAspectRatio="xMidYMid meet" version="1.0"><defs><clipPath id="aa8e315447"><path d="M 225.398438 224.898438 L 2024.601562 224.898438 L 2024.601562 2024.101562 L 225.398438 2024.101562 Z M 225.398438 224.898438 " clip-rule="nonzero"/></clipPath><clipPath id="96bb4e8bf9"><path d="M 225.398438 273 L 1835 273 L 1835 2024.101562 L 225.398438 2024.101562 Z M 225.398438 273 " clip-rule="nonzero"/></clipPath></defs><g clip-path="url(#aa8e315447)"><path fill="#8c0f10" d="M 1125 2024.101562 C 628.96875 2024.101562 225.398438 1620.53125 225.398438 1124.5 C 225.398438 628.46875 628.96875 224.898438 1125 224.898438 C 1621.03125 224.898438 2024.601562 628.46875 2024.601562 1124.5 C 2024.601562 1620.53125 1621.03125 2024.101562 1125 2024.101562 " fill-opacity="1" fill-rule="nonzero"/></g><g clip-path="url(#96bb4e8bf9)"><path fill="#8c0f10" d="M 1544.820312 1724.238281 C 1048.789062 1724.238281 645.21875 1320.671875 645.21875 824.636719 C 645.21875 616.992188 716.613281 426.109375 835.226562 273.683594 C 481.117188 394.671875 225.398438 729.9375 225.398438 1124.5 C 225.398438 1620.53125 628.96875 2024.101562 1125 2024.101562 C 1413.398438 2024.101562 1669.859375 1887.148438 1834.59375 1675.441406 C 1743.515625 1706.558594 1646.289062 1724.238281 1544.820312 1724.238281 " fill-opacity="1" fill-rule="nonzero"/></g><path fill="#ffffff" d="M 721.734375 1589.8125 C 705.851562 1589.8125 689.96875 1583.746094 677.863281 1571.636719 C 653.636719 1547.410156 653.636719 1508.125 677.863281 1483.894531 L 1484.394531 677.363281 C 1508.609375 653.136719 1547.921875 653.136719 1572.136719 677.363281 C 1596.363281 701.578125 1596.363281 740.878906 1572.136719 765.089844 L 765.589844 1571.636719 C 753.496094 1583.746094 737.601562 1589.8125 721.734375 1589.8125 " fill-opacity="1" fill-rule="nonzero"/><path fill="#ffffff" d="M 845.808594 752.257812 C 794.5 752.257812 752.757812 794 752.757812 845.3125 C 752.757812 896.636719 794.5 938.378906 845.808594 938.378906 C 897.136719 938.378906 938.878906 896.636719 938.878906 845.3125 C 938.878906 794 897.136719 752.257812 845.808594 752.257812 Z M 845.808594 1062.457031 C 726.070312 1062.457031 628.664062 965.050781 628.664062 845.3125 C 628.664062 725.570312 726.070312 628.167969 845.808594 628.167969 C 965.550781 628.167969 1062.953125 725.570312 1062.953125 845.3125 C 1062.953125 965.050781 965.550781 1062.457031 845.808594 1062.457031 " fill-opacity="1" fill-rule="nonzero"/><path fill="#ffffff" d="M 1404.191406 1310.621094 C 1352.863281 1310.621094 1311.121094 1352.367188 1311.121094 1403.691406 C 1311.121094 1455 1352.863281 1496.742188 1404.191406 1496.742188 C 1455.5 1496.742188 1497.242188 1455 1497.242188 1403.691406 C 1497.242188 1352.367188 1455.5 1310.621094 1404.191406 1310.621094 Z M 1404.191406 1620.835938 C 1284.449219 1620.835938 1187.046875 1523.429688 1187.046875 1403.691406 C 1187.046875 1283.949219 1284.449219 1186.546875 1404.191406 1186.546875 C 1523.929688 1186.546875 1621.332031 1283.949219 1621.332031 1403.691406 C 1621.332031 1523.429688 1523.929688 1620.835938 1404.191406 1620.835938 " fill-opacity="1" fill-rule="nonzero"/></svg>